<?xml version="1.0" encoding="iso-8859-1"?>
<!-- Generator: Adobe Illustrator 18.1.1, SVG Export Plug-In . SVG Version: 6.00 Build 0)  -->
<svg version="1.1" id="Capa_1" xmlns="http://www.w3.org/2000/svg" xmlns:xlink="http://www.w3.org/1999/xlink" x="0px" y="0px"
     viewBox="0 0 32 21" width="32px" height="21px" style="enable-background:new 0 0 32 21;" xml:space="preserve">
    <path
        d="M26.58,21L2.42,21A2.4,2.4 0,0 1,0 18.62L0,4.38A2.4,2.4 0,0 1,2.42 2h24.16A2.4,2.4 0,0 1,29 4.38v14.25A2.4,2.4 0,0 1,26.58 21z"
        style="fill:#EBF1F8;"/>
    <path
        d="M12,4.02L12,4h5v0.02a7.5,7.5 0,0 1,0 14.96L17,19h-5v-0.02a7.5,7.5 0,0 1,0 -14.96z"
        style="fill:#0165AC;"/>
    <path
        d="M14,15.74a4.5,4.5 0,0 0,0 -8.48v8.48zM11,7.26a4.5,4.5 0,0 0,0 8.48L11,7.26zM12.5,18a6.5,6.5 0,1 1,0 -13,6.5 6.5,0 0,1 0,13z"
        style="fill:#FFFFFF;"/>
</svg>
