<?xml version="1.0" encoding="iso-8859-1"?>
<!-- Generator: Adobe Illustrator 18.1.1, SVG Export Plug-In . SVG Version: 6.00 Build 0)  -->
<svg version="1.1" id="Capa_1" xmlns="http://www.w3.org/2000/svg" xmlns:xlink="http://www.w3.org/1999/xlink" x="0px" y="0px"
     viewBox="0 0 32 21" width="32px" height="21px" style="enable-background:new 0 0 32 21;" xml:space="preserve">
    <path
        d="M26.58,21L2.42,21A2.4,2.4 0,0 1,0 18.62L0,4.38A2.4,2.4 0,0 1,2.42 2h24.16A2.4,2.4 0,0 1,29 4.38v14.25A2.4,2.4 0,0 1,26.58 21z"
        style="fill:#003663;"/>
    <path
        d="M10.5,11.5m-6.5,0a6.5,6.5 0,1 1,13 0a6.5,6.5 0,1 1,-13 0"
        style="fill:#EB1C26;"/>
    <path
        d="M18.5,11.5m-6.5,0a6.5,6.5 0,1 1,13 0a6.5,6.5 0,1 1,-13 0"
        style="fill:#F99F1B;"/>
    <path
        d="M14.5,6.38a6.49,6.49 0,0 0,0 10.24,6.49 6.49,0 0,0 0,-10.24z"
        style="fill:#EF5D20;"/>
</svg>
